<svg height="512pt" viewBox="0 -19 512.001 512" width="512pt" xmlns="http://www.w3.org/2000/svg"><path d="m478.167969 142.09375c0 18.882812-4.40625 36.746094-12.269531 52.589844-19.375 39.136718-59.726563 66.046875-106.363282 66.046875-65.519531 0-118.636718-53.117188-118.636718-118.636719 0-41.25 21.054687-77.582031 53.003906-98.835938 18.789062-12.519531 41.359375-19.800781 65.632812-19.800781 65.519532 0 118.632813 53.117188 118.632813 118.636719zm0 0" fill="#fedfc5"/><path d="m465.898438 194.683594c-19.378907 39.136718-59.730469 66.046875-106.367188 66.046875-65.519531 0-118.632812-53.117188-118.632812-118.636719 0-41.25 21.054687-77.582031 53-98.835938 4.285156 9.621094 5.699218 20.003907 4.070312 30.277344-1.121094 7.105469-3.617188 13.742188-7.167969 19.632813 12.554688 7.210937 24.144531 16.246093 34.335938 26.910156 9.785156-2.597656 19.890625-3.90625 30.121093-3.90625 51.078126 0 94.621094 32.832031 110.640626 78.511719zm0 0" fill="#edb48a"/><path d="m451.085938 149.140625c0 4.375-1.421876 8.414063-3.832032 11.691406-3.59375 4.882813-9.386718 8.054688-15.914062 8.054688-10.910156 0-19.75-8.839844-19.75-19.746094 0-5.824219 2.515625-11.046875 6.511718-14.660156 3.503907-3.152344 8.136719-5.089844 13.238282-5.089844 10.894531 0 19.746094 8.839844 19.746094 19.75zm0 0" fill="#64bdff"/><path d="m447.253906 160.832031c-3.597656 4.882813-9.386718 8.054688-15.917968 8.054688-10.910157 0-19.746094-8.839844-19.746094-19.746094 0-5.824219 2.511718-11.046875 6.511718-14.660156 11.132813 7.097656 20.992188 16.019531 29.152344 26.351562zm0 0" fill="#43a3f9"/><path d="m186.03125 391.265625s138.566406-21.140625 183.585938 68.011719c4.253906 8.417968 12.785156 13.816406 22.214843 13.816406 18.71875 0 30.671875-19.960938 21.835938-36.457031l-65.980469-123.21875h-128.773438zm0 0" fill="#f01054"/><path d="m459.4375 245.242188c.4375-3.890626.671875-7.847657.671875-11.855469 0-57.910157-46.945313-104.855469-104.855469-104.855469-11.910156 0-23.355468 1.988281-34.023437 5.648438-25.71875-29.957032-63.863281-48.933594-106.441407-48.933594-59.402343 0-110.179687 36.933594-130.621093 89.085937-47.550781 6.578125-84.167969 47.378907-84.167969 96.738281 0 53.941407 43.726562 97.667969 97.667969 97.667969 7.144531 0 14.105469-.777343 20.8125-2.230469 15.253906 34.066407 49.445312 57.800782 89.183593 57.800782 40.367188 0 75.007813-24.488282 89.890626-59.417969 15.273437 9.898437 33.484374 15.644531 53.035156 15.644531 23.042968 0 44.21875-7.980468 60.917968-21.328125 10.425782 7.519531 23.21875 11.960938 37.054688 11.960938 35.035156 0 63.4375-28.402344 63.4375-63.4375 0-31.324219-22.710938-57.328125-52.5625-62.488281zm0 0" fill="#fd82ac"/><g fill="#fd6096"><path d="m511.992188 306.710938c.539062 34.441406-27.050782 63.390624-61.480469 64.425781-14.582031.4375-28.089844-4.058594-39.003907-11.929688-16.699218 13.351563-37.871093 21.335938-60.914062 21.335938-19.554688 0-37.769531-5.761719-53.035156-15.648438-14.886719 34.921875-49.53125 59.421875-89.894532 59.421875-39.742187 0-73.9375-23.738281-89.183593-57.804687-6.074219 1.316406-12.359375 2.074219-18.792969 2.203125-52.183594 1.066406-96.410156-39.640625-99.511719-91.742188-.4375-7.328125-.050781-14.511718 1.050781-21.441406 7.4375 46.5625 47.789063 82.15625 96.445313 82.15625 4.574219 0 9.078125-.316406 13.488281-.929688 4.261719-.59375 8.488282 1.421876 10.535156 5.207032 16.503907 30.542968 48.8125 51.289062 85.96875 51.289062 36.660157 0 68.605469-20.199218 85.3125-50.074218 2.707032-4.84375 8.742188-6.601563 13.695313-4.105469 13.203125 6.65625 28.125 10.40625 43.921875 10.40625 20.605469 0 39.714844-6.382813 55.46875-17.273438 3.226562-2.230469 7.460938-2.507812 10.859375-.546875 9.3125 5.378906 20.113281 8.457032 31.640625 8.457032 29.679688 0 54.597656-20.375 61.523438-47.914063 1.175781 4.652344 1.828124 9.507813 1.90625 14.507813zm0 0"/><path d="m254.46875 223.359375c-.386719 0-.777344-.03125-1.171875-.089844-4.21875-.640625-7.117187-4.582031-6.476563-8.800781 2.964844-19.5 11.390626-38.046875 24.363282-53.640625 12.644531-15.199219 29-26.910156 47.300781-33.871094 3.984375-1.515625 8.449219.488281 9.964844 4.476563 1.519531 3.988281-.484375 8.453125-4.472657 9.96875-32.503906 12.359375-56.792968 41.953125-61.878906 75.390625-.582031 3.824219-3.875 6.566406-7.628906 6.566406zm0 0"/><path d="m432.300781 307.523438c-1.90625 0-3.8125-.699219-5.308593-2.113282-3.101563-2.929687-3.238282-7.816406-.308594-10.921875 13.5-14.289062 22.1875-31.730469 25.121094-50.445312.660156-4.214844 4.617187-7.09375 8.832031-6.433594 4.214843.660156 7.09375 4.613281 6.433593 8.828125-3.417968 21.808594-13.5 42.09375-29.15625 58.664062-1.519531 1.609376-3.566406 2.421876-5.613281 2.421876zm0 0"/><path d="m118.539062 374.335938c-3.148437 0-6.105468-1.941407-7.253906-5.070313-13.382812-36.492187-5.367187-76.980469 20.914063-105.660156 2.882812-3.144531 7.769531-3.359375 10.917969-.476563 3.144531 2.882813 3.359374 7.773438.476562 10.917969-22.363281 24.402344-29.183594 58.851563-17.800781 89.902344 1.46875 4.003906-.589844 8.445312-4.59375 9.914062-.878907.320313-1.773438.472657-2.660157.472657zm0 0"/></g><path d="m242.609375 325.441406c-4.269531 0-7.769531-3.457031-7.769531-7.722656 0-4.269531 3.421875-7.726562 7.6875-7.726562h.078125c4.269531 0 7.726562 3.457031 7.726562 7.726562.003907 4.265625-3.457031 7.722656-7.722656 7.722656zm0 0" fill="#f01054"/><path d="m260.160156 339.765625c-4.265625 0-7.765625-3.457031-7.765625-7.726563 0-4.265624 3.417969-7.722656 7.683594-7.722656h.082031c4.269532 0 7.726563 3.457032 7.726563 7.722656 0 4.269532-3.457031 7.726563-7.726563 7.726563zm0 0" fill="#fd6096"/><path d="m214.792969 353.160156c-4.269531 0-7.765625-3.460937-7.765625-7.726562s3.417968-7.726563 7.683594-7.726563h.082031c4.265625 0 7.726562 3.460938 7.726562 7.726563s-3.460937 7.726562-7.726562 7.726562zm0 0" fill="#fd6096"/><path d="m459.476562 346.046875c-4.242187 0-7.738281-3.429687-7.765624-7.679687-.027344-4.265626 3.371093-7.746094 7.636718-7.773438h.082032c4.289062-.03125 7.746093 3.410156 7.773437 7.675781s-3.410156 7.75-7.675781 7.773438c-.015625.003906-.035156.003906-.050782.003906zm0 0" fill="#f01054"/><path d="m416.675781 217.695312c-4.246093 0-7.738281-3.425781-7.769531-7.675781-.023438-4.269531 3.371094-7.75 7.640625-7.777343h.082031c4.21875-.027344 7.746094 3.410156 7.773438 7.675781.027344 4.269531-3.410156 7.75-7.679688 7.777343-.015625 0-.03125 0-.046875 0zm0 0" fill="#fd6096"/><path d="m285.761719 71.605469c-3.707031 23.476562-27.464844 41.894531-53.507813 33.160156-.585937-.195313-1.164062-.402344-1.75-.617187-13.566406-5.058594-23.882812-15.03125-29.667968-27.136719-6.101563-12.710938-7.214844-27.792969-1.886719-42.039063 10.394531-27.828125 41.371093-41.949218 69.1875-31.554687.019531 0 .039062.007812.050781.019531 2.957031 1.101562 4.699219 4.164062 4.214844 7.285156-1.703125 10.90625 2.925781 23.660156 8.828125 34.746094 4.625 8.683594 5.859375 17.738281 4.53125 26.136719zm0 0" fill="#e29c6d"/><path d="m285.761719 71.605469c-3.707031 23.476562-27.464844 41.894531-53.507813 33.160156-.585937-.195313-1.164062-.402344-1.75-.617187-13.566406-5.058594-23.882812-15.03125-29.667968-27.136719 11.441406-11.9375 27.554687-19.367188 45.398437-19.367188 14.980469 0 28.71875 5.222657 39.527344 13.960938zm0 0" fill="#f9b200"/><path d="m229.417969 105.28125h29.238281c5.355469 0 9.816406 4.101562 10.265625 9.433594l12.96875 153.644531h-75.707031l12.96875-153.644531c.449218-5.332032 4.910156-9.433594 10.265625-9.433594zm0 0" fill="#bddff4"/><path d="m281.886719 268.359375h-18.066407l-13.765624-163.078125h8.597656c5.355468 0 9.816406 4.101562 10.265625 9.433594zm0 0" fill="#9cc6db"/><path d="m156.96875 299.796875c0-40.457031 38.339844-73.253906 85.640625-73.253906 47.296875 0 85.636719 32.796875 85.636719 73.253906zm0 0" fill="#fd82ac"/><path d="m301.328125 254.207031c-1.699219 0-3.414063-.558593-4.84375-1.710937-14.574219-11.753906-33.710937-18.226563-53.875-18.226563-17.253906 0-33.605469 4.660157-47.285156 13.46875-3.589844 2.308594-8.363281 1.277344-10.679688-2.3125-2.308593-3.585937-1.273437-8.367187 2.3125-10.679687 16.179688-10.421875 35.425781-15.929688 55.652344-15.929688 23.679687 0 46.261719 7.6875 63.574219 21.648438 3.324218 2.679687 3.84375 7.542968 1.167968 10.863281-1.527343 1.894531-3.765624 2.878906-6.023437 2.878906zm0 0" fill="#fd6096"/><path d="m89.074219 282.597656c-4.242188 0-7.734375-3.429687-7.765625-7.679687-.023438-4.265625 3.371094-7.746094 7.640625-7.773438h.078125.050781c4.242187 0 7.695313 3.425781 7.722656 7.675781.027344 4.265626-3.410156 7.75-7.675781 7.777344-.015625 0-.03125 0-.050781 0zm0 0" fill="#fd6096"/><path d="m164.039062 161.339844c-4.242187 0-7.734374-3.429688-7.765624-7.679688-.023438-4.265625 3.371093-7.746094 7.640624-7.773437h.078126.050781c4.242187 0 7.695312 3.425781 7.722656 7.675781.027344 4.265625-3.410156 7.75-7.675781 7.773438-.015625.003906-.03125.003906-.050782.003906zm0 0" fill="#fd6096"/><path d="m354.546875 77.011719c0 10.90625-8.84375 19.75-19.75 19.75s-19.746094-8.84375-19.746094-19.75 8.839844-19.75 19.746094-19.75 19.75 8.84375 19.75 19.75zm0 0" fill="#f01054"/><path d="m423.265625 88.832031c0 10.90625-8.839844 19.75-19.746094 19.75-10.910156 0-19.75-8.84375-19.75-19.75s8.839844-19.75 19.75-19.75c10.90625 0 19.746094 8.84375 19.746094 19.75zm0 0" fill="#9be058"/></svg>