<svg height="512pt" viewBox="-56 0 512 512.001" width="512pt" xmlns="http://www.w3.org/2000/svg"><path d="m182.785156 320.707031h-34.664062c-3.523438 0-6.542969-2.511719-7.1875-5.972656l-6.351563-34.238281 29.074219-10.003906 32.074219 10.003906-5.738281 34.117187c-.59375 3.519531-3.640626 6.09375-7.207032 6.09375zm0 0" fill="#38627c"/><path d="m243.667969 150.101562c0-45.214843-36.96875-81.796874-82.332031-81.167968-43.164063.597656-79.675782 37.339844-80.019532 80.507812-.15625 19.664063 6.679688 37.730469 18.175782 51.859375 10.875 13.363281 18.25 29.226563 20.949218 46.25l3.65625 23.078125c.902344 5.714844 5.832032 9.921875 11.617188 9.921875h56.9375c5.921875 0 10.921875-4.398437 11.667968-10.273437l3.054688-23.933594c2.171875-17.007812 8.902344-33.085938 19.386719-46.652344 10.597656-13.714844 16.90625-30.914062 16.90625-49.589844zm0 0" fill="#fdd559"/><path d="m161.335938 68.933594c-4.847657.066406-9.601563.613281-14.242188 1.550781 37.238281 7.375 65.320312 40.210937 65.320312 79.617187 0 18.675782-6.308593 35.875-16.90625 49.589844-10.484374 13.566406-17.214843 29.644532-19.386718 46.652344l-3.054688 23.933594c-.746094 5.875-5.746094 10.273437-11.667968 10.273437h31.253906c5.921875 0 10.921875-4.398437 11.667968-10.273437l3.054688-23.933594c2.171875-17.007812 8.902344-33.085938 19.386719-46.652344 10.597656-13.714844 16.90625-30.914062 16.90625-49.589844 0-45.21875-36.96875-81.800781-82.332031-81.167968zm0 0" fill="#fdc259"/><path d="m134.582031 280.496094 2.105469 11.351562h11.714844c15.3125 0 26.953125 13.761719 24.410156 28.859375h9.972656c3.566406 0 6.613282-2.574219 7.207032-6.09375l5.738281-34.117187zm0 0" fill="#2f5066"/><path d="m160.597656 207.804688c-2.972656 0-5.394531 1.078124-7.203125 3.207031-1.789062 2.101562-2.695312 4.660156-2.695312 7.597656 0 2.839844.90625 5.371094 2.691406 7.519531 1.808594 2.183594 4.230469 3.289063 7.207031 3.289063 2.957032 0 5.523438-1.097657 7.632813-3.257813 2.105469-2.15625 3.175781-4.699218 3.175781-7.550781 0-2.949219-1.070312-5.515625-3.179688-7.628906-2.109374-2.109375-4.675781-3.175781-7.628906-3.175781zm0 0" fill="#fff"/><path d="m185.453125 123.628906c-5.722656-4.902344-13.472656-7.390625-23.039063-7.390625-8.550781 0-15.480468 1.972657-20.59375 5.855469-5.15625 3.921875-7.769531 8.132812-7.769531 12.519531 0 2.476563.851563 4.417969 2.527344 5.773438 1.644531 1.332031 3.503906 2.007812 5.53125 2.007812 1.628906 0 3.089844-.5625 4.335937-1.675781 1.183594-1.050781 2.203126-2.191406 3.027344-3.390625.746094-1.085937 2.199219-2.136719 4.316406-3.125 2.132813-.988281 4.851563-1.492187 8.074219-1.492187 4.585938 0 8.28125 1.09375 10.992188 3.253906 2.671875 2.132812 4.027343 5.191406 4.027343 9.09375 0 2.296875-.566406 4.558594-1.683593 6.71875-1.128907 2.1875-2.265625 3.851562-3.382813 4.957031-1.144531 1.128906-2.894531 2.707031-5.1875 4.679687l-4.40625 3.605469c-6.140625 5.464844-9.25 13.546875-9.25 24.023438 0 3.355469.558594 5.621093 1.714844 6.925781 1.160156 1.304688 3.09375 1.96875 5.761719 1.96875 5.363281 0 8.082031-2.007812 8.082031-5.964844 0-5.074218.398438-9 1.191406-11.65625.769532-2.605468 2.851563-5.269531 6.191406-7.921875l2.917969-2.445312 3.972657-3.792969c.828124-.816406 2.097656-2.285156 3.777343-4.351562 1.695313-2.085938 3-4 3.878907-5.6875.875-1.683594 1.707031-3.773438 2.476562-6.214844.777344-2.460938 1.171875-5.007813 1.171875-7.570313-.003906-7.488281-2.914063-13.78125-8.65625-18.703125zm0 0" fill="#fff"/><g fill="#fce6a9"><path d="m165.390625 0c-4.273437 0-7.738281 3.464844-7.738281 7.738281v25.457031c0 4.277344 3.464844 7.742188 7.738281 7.742188s7.738281-3.464844 7.738281-7.742188v-25.457031c0-4.273437-3.464844-7.738281-7.738281-7.738281zm0 0"/><path d="m308.5 143.109375h-25.457031c-4.273438 0-7.738281 3.46875-7.738281 7.742187 0 4.273438 3.464843 7.738282 7.738281 7.738282h25.457031c4.277344 0 7.742188-3.464844 7.742188-7.738282 0-4.273437-3.464844-7.742187-7.742188-7.742187zm0 0"/><path d="m47.738281 143.109375h-25.457031c-4.277344 0-7.742188 3.46875-7.742188 7.742187 0 4.273438 3.464844 7.738282 7.742188 7.738282h25.457031c4.273438 0 7.738281-3.464844 7.738281-7.738282 0-4.273437-3.464843-7.742187-7.738281-7.742187zm0 0"/><path d="m261.113281 44.183594-18.003906 18c-3.023437 3.023437-3.023437 7.925781 0 10.945312 1.511719 1.511719 3.492187 2.269532 5.472656 2.269532 1.984375 0 3.964844-.757813 5.476563-2.269532l18-18c3.023437-3.023437 3.023437-7.921875 0-10.945312-3.023438-3.023438-7.921875-3.023438-10.945313 0zm0 0"/><path d="m76.722656 228.570312-18 18.003907c-3.023437 3.023437-3.023437 7.921875 0 10.945312 1.511719 1.511719 3.492188 2.265625 5.472656 2.265625 1.980469 0 3.960938-.753906 5.472657-2.265625l18-18c3.023437-3.023437 3.023437-7.925781 0-10.949219-3.019531-3.019531-7.921875-3.019531-10.945313 0zm0 0"/><path d="m254.058594 228.570312c-3.023438-3.019531-7.925782-3.019531-10.945313 0-3.023437 3.023438-3.023437 7.925782 0 10.949219l18 18c1.511719 1.511719 3.492188 2.265625 5.472657 2.265625 1.980468 0 3.960937-.753906 5.472656-2.265625 3.023437-3.023437 3.023437-7.925781 0-10.945312zm0 0"/><path d="m69.667969 44.183594c-3.023438-3.023438-7.921875-3.023438-10.945313 0-3.023437 3.023437-3.023437 7.921875 0 10.945312l18 18c1.511719 1.511719 3.492188 2.269532 5.472656 2.269532 1.984376 0 3.964844-.757813 5.472657-2.269532 3.023437-3.023437 3.023437-7.921875 0-10.945312zm0 0"/></g><path d="m281.421875 465.265625c-3.960937 0-7.921875-1.511719-10.945313-4.535156l-22.019531-27.914063c-6.488281-8.222656-16.390625-13.023437-26.867187-13.023437h-134.367188c-9.277344 0-18.011718-4.390625-23.542968-11.839844l-59.144532-79.601563c-6.222656-6.222656-6.042968-16.421874.542969-22.410156 6.164063-5.609375 15.765625-5.066406 21.660156.828125l58.839844 58.839844h132.304687c20.722657 0 40.617188 8.132813 55.410157 22.644531l19.078125 18.71875c6.046875 6.046875 6.046875 15.847656 0 21.894532-3.023438 3.023437-6.984375 36.398437-10.949219 36.398437zm0 0" fill="#fedfc5"/><path d="m83.078125 365.609375h2.5l-58.820313-58.820313c-5.867187-5.867187-15.90625-6.332031-21.925781-.621093-1.519531 1.441406-2.683593 3.117187-3.484375 4.914062l35.296875 35.296875c12.3125 12.3125 29.015625 19.230469 46.433594 19.230469zm0 0" fill="#fecbaa"/><path d="m292.371094 406.972656-19.078125-18.71875c-14.792969-14.511718-34.6875-22.644531-55.414063-22.644531h-29.699218c20.722656 0 40.617187 8.132813 55.410156 22.644531l19.078125 18.71875c6.046875 6.046875 6.046875 15.847656 0 21.894532-1.335938 1.335937-2.855469 8.597656-4.476563 16.289062l12.289063 15.574219c3.019531 3.023437 6.980469 4.535156 10.945312 4.535156 3.960938 0 7.921875-33.375 10.945313-36.398437 6.042968-6.046876 6.042968-15.847657 0-21.894532zm0 0" fill="#fecbaa"/><path d="m240.09375 442.6875 61.378906-47.507812c2.472656-1.917969 6.03125-1.460938 7.949219 1.011718l28.121094 36.332032-70.339844 54.449218-28.125-36.332031c-1.914063-2.476563-1.460937-6.035156 1.015625-7.953125zm0 0" fill="#83d9ff"/><path d="m309.421875 396.191406c-1.917969-2.476562-5.476563-2.929687-7.953125-1.011718l-12.941406 10.015624c11.679687 15.09375 8.917968 36.796876-6.175782 48.476563l-25.589843 19.808594 10.4375 13.488281 70.34375-54.445312zm0 0" fill="#5fc9ed"/><path d="m337.542969 432.523438-70.339844 54.445312 16.621094 21.476562c1.738281 2.242188 4.410156 3.554688 7.246093 3.554688h106.425782c2.089844 0 3.238281-2.429688 1.914062-4.046875zm0 0" fill="#4f7693"/></svg>