<svg height="512pt" viewBox="-20 0 512 512.0005" width="512pt" xmlns="http://www.w3.org/2000/svg"><path d="m252.886719 34.828125v320.992187c0 20.203126 16.378906 36.582032 36.578125 36.582032 20.203125 0 36.582031-16.378906 36.582031-36.582032v-52.257812c0-20.203125 16.378906-36.578125 36.578125-36.578125 20.203125 0 36.582031 16.375 36.582031 36.578125v171.859375c0 20.203125 16.375 36.578125 36.578125 36.578125s36.582032-16.375 36.582032-36.578125v-440.59375c0-5.6875-4.613282-10.300781-10.304688-10.300781h-198.875c-5.6875 0-10.300781 4.613281-10.300781 10.300781zm0 0" fill="#3fefef"/><path d="m462.0625 24.53125c5.691406 0 10.300781 4.609375 10.300781 10.300781v440.585938c0 10.109375-4.089843 19.246093-10.714843 25.871093-6.613282 6.613282-15.761719 10.710938-25.855469 10.710938-3.800781 0-7.46875-.578125-10.910157-1.65625 5.707032-1.785156 10.828126-4.925781 14.957032-9.054688 6.625-6.625 10.714844-15.761718 10.714844-25.871093v-450.886719zm0 0" fill="#1dd1d9"/><path d="m172.65625 255.9375 13.121094-13.125-29.996094-29.996094-13.125 13.121094c-26.207031 26.210938-56.011719 48.472656-88.046875 67.332031-8.296875 4.886719-16.617187 11.296875-24.386719 19.066407-28.191406 28.191406-38.5 63.589843-23.027344 79.0625 15.472657 15.472656 50.867188 5.160156 79.058594-23.027344 7.773438-7.773438 14.183594-16.089844 19.066406-24.386719 18.859376-32.035156 41.125-61.839844 67.335938-88.046875zm0 0" fill="#64bdff"/><path d="m185.777344 242.816406-13.125 13.121094c-26.207032 26.210938-48.46875 56.011719-67.332032 88.050781-4.882812 8.292969-11.289062 16.605469-19.070312 24.386719-28.183594 28.183594-63.582031 38.496094-79.054688 23.023438-2.492187-2.492188-4.304687-5.492188-5.492187-8.890626 17.773437 6.210938 46.515625-4.863281 70.167969-28.515624 7.777344-7.769532 14.183594-16.089844 19.066406-24.382813 18.863281-32.039063 41.125-61.84375 67.335938-88.050781l13.121093-13.125zm0 0" fill="#43a3f9"/><path d="m286.3125 266.28125-154-154 108.421875-108.421875c5.144531-5.144531 13.488281-5.144531 18.632813 0l135.367187 135.367187c5.144531 5.144532 5.144531 13.488282 0 18.632813zm0 0" fill="#ffeb96"/><g fill="#ffdf46"><path d="m164.652344 131.730469c-1.976563 0-3.957032-.757813-5.464844-2.265625-3.015625-3.015625-3.015625-7.90625 0-10.925782l67.082031-67.082031c3.015625-3.015625 7.90625-3.015625 10.925781 0 3.019532 3.015625 3.019532 7.910157 0 10.925781l-67.078124 67.082032c-1.511719 1.511718-3.488282 2.265625-5.464844 2.265625zm0 0"/><path d="m183.90625 150.984375c-1.980469 0-3.957031-.753906-5.464844-2.265625-3.015625-3.015625-3.015625-7.90625 0-10.925781l21.121094-21.117188c3.015625-3.015625 7.90625-3.015625 10.925781 0 3.015625 3.019531 3.015625 7.910157 0 10.925781l-21.121093 21.121094c-1.507813 1.507813-3.484376 2.261719-5.460938 2.261719zm0 0"/><path d="m249.550781 216.628906c-1.976562 0-3.953125-.753906-5.460937-2.261718-3.019532-3.019532-3.019532-7.910157 0-10.925782l21.117187-21.121094c3.015625-3.015624 7.910157-3.015624 10.925781 0 3.019532 3.019532 3.019532 7.910157 0 10.929688l-21.117187 21.117188c-1.507813 1.507812-3.484375 2.261718-5.464844 2.261718zm0 0"/><path d="m394.730469 157.867188-108.417969 108.414062-15.296875-15.296875 108.425781-108.417969c5.089844-5.097656 5.140625-13.308594.15625-18.46875l15.132813 15.132813c5.148437 5.140625 5.148437 13.484375 0 18.636719zm0 0"/></g><path d="m234.847656 313.457031-149.710937-149.710937c-5.144531-5.148438-5.144531-13.488282 0-18.632813l40.992187-40.996093c5.148438-5.144532 13.488282-5.144532 18.636719 0l149.710937 149.714843c5.148438 5.144531 5.148438 13.488281 0 18.632813l-40.992187 40.992187c-5.148437 5.144531-13.488281 5.144531-18.636719 0zm0 0" fill="#bddff4"/><path d="m220.753906 267.300781c-1.976562 0-3.957031-.753906-5.464844-2.261719l-81.734374-81.734374c-3.015626-3.019532-3.015626-7.910157 0-10.929688 3.019531-3.015625 7.910156-3.015625 10.929687 0l81.734375 81.734375c3.015625 3.019531 3.015625 7.910156 0 10.929687-1.511719 1.507813-3.488281 2.261719-5.464844 2.261719zm0 0" fill="#9cc6db"/><path d="m428.546875 195.511719c-4.265625 0-7.765625-3.457031-7.765625-7.726563 0-4.265625 3.417969-7.726562 7.683594-7.726562h.082031c4.269531 0 7.726563 3.460937 7.726563 7.726562 0 4.269532-3.457032 7.726563-7.726563 7.726563zm0 0" fill="#1dd1d9"/><path d="m435.085938 216.628906c-4.21875 0-7.710938-3.394531-7.761719-7.628906-.054688-4.265625 3.320312-7.765625 7.589843-7.820312h.078126c.03125-.003907.066406-.003907.097656-.003907 4.222656 0 7.671875 3.398438 7.722656 7.632813.054688 4.265625-3.359375 7.769531-7.628906 7.820312-.03125 0-.0625 0-.097656 0zm0 0" fill="#1dd1d9"/><path d="m387.039062 240.429688c-4.269531 0-7.765624-3.457032-7.765624-7.722657 0-4.269531 3.417968-7.726562 7.683593-7.726562h.082031c4.265626 0 7.726563 3.457031 7.726563 7.726562 0 4.265625-3.457031 7.722657-7.726563 7.722657zm0 0" fill="#1dd1d9"/></svg>