<svg width="354" height="283" class="palm" xmlns="http://www.w3.org/2000/svg">
 <!-- Created with Method Draw - http://github.com/duopixel/Method-Draw/ -->
 <g>
  <title>background</title>
  <rect fill="none" id="canvas_background" height="285" width="356" y="-1" x="-1"/>
  <g display="none" overflow="visible" y="0" x="0" height="100%" width="100%" id="canvasGrid">
   <rect fill="url(#gridpattern)" stroke-width="0" y="0" x="0" height="100%" width="100%"/>
  </g>
 </g>
 <g>
  <title>Layer 1</title>
  <ellipse stroke="#FFB27C" ry="25.818168" rx="155" id="svg_1" cy="281.363967" cx="156.363065" stroke-width="1.5" fill="#FFB27C"/>
  <path id="svg_3" d="m204.09054,87.306333" opacity="0.5" fill-opacity="null" stroke-opacity="null" stroke-width="1.5" stroke="#FFB27C" fill="none"/>
  <path id="svg_6" class="stump" d="m136.817528,257.307052c13.636421,-84.545812 77.273054,-173.637098 78.182149,-173.637098c0.909095,0 -50.909306,175.455288 -50.000212,175.455288" opacity="0.5" fill-opacity="null" stroke-opacity="null" stroke-width="1.5" stroke="#FFB27C" fill="#845335"/>
  <path id="svg_12" d="m214.090583,85.488143c-51.818401,22.727369 -70.000296,34.545601 -73.636675,59.091159" opacity="0.5" stroke-opacity="null" stroke-width="1.5" stroke="#396849" fill="#A0D58A"/>
  <path id="svg_13" d="m214.090583,85.488143c-140.909687,-20.000085 -113.636844,40.909264 -113.636844,40.909264" opacity="0.5" stroke-opacity="null" stroke-width="1.5" stroke="#396849" fill="#A0D58A"/>
  <path id="svg_14" d="m214.090583,86.397238c-117.273223,-65.454822 -156.364298,-7.272758 -156.817615,-7.305992" opacity="0.5" stroke-opacity="null" stroke-width="1.5" stroke="#396849" fill="#A0D58A"/>
  <path id="svg_15" d="m214.090583,83.669954c42.727454,-95.454949 -81.818528,-78.182149 -82.271843,-78.215385" opacity="0.5" stroke-opacity="null" stroke-width="1.5" stroke="#396849" fill="#A0D58A"/>
  <path id="svg_16" d="m264.999889,86.397238" opacity="0.5" stroke-opacity="null" stroke-width="1.5" stroke="#396849" fill="#A0D58A"/>
  <path id="svg_18" d="m213.181488,84.579049" opacity="0.5" fill-opacity="null" stroke-opacity="null" stroke-width="1.5" stroke="#396849" fill="#A0D58A"/>
  <path id="svg_19" d="m212.272393,84.579049c117.273223,-0.909095 62.727538,57.27297 62.274225,57.239736" opacity="0.5" fill-opacity="null" stroke-opacity="null" stroke-width="1.5" stroke="#396849" fill="#A0D58A"/>
  <path id="svg_20" d="m209.545109,86.397238c161.818866,-55.45478 136.364213,8.181853 135.910902,8.148619" opacity="0.5" fill-opacity="null" stroke-opacity="null" stroke-width="1.5" stroke="#396849" fill="#A0D58A"/>
  <path id="svg_21" d="m184.090456,11.851468" opacity="0.5" fill-opacity="null" stroke-opacity="null" stroke-width="1.5" stroke="#396849" fill="#A0D58A"/>
  <path id="svg_22" d="m216.817867,87.306333c30.000127,60.909349 7.272758,62.727538 6.819444,62.694305" opacity="0.5" fill-opacity="null" stroke-opacity="null" stroke-width="1.5" stroke="#396849" fill="#A0D58A"/>
 </g>
</svg>