<svg width="580" height="400" xmlns="http://www.w3.org/2000/svg" stroke="null" style="vector-effect: non-scaling-stroke;">
 <!-- Created with Method Draw - http://github.com/duopixel/Method-Draw/ -->
 <defs stroke="null" style="vector-effect: non-scaling-stroke;">
  <linearGradient stroke="null" style="vector-effect: non-scaling-stroke;" y2="1" x2="1" y1="0" x1="0" id="svg_32">
   <stop stroke="null" style="vector-effect: non-scaling-stroke;" offset="0.375" stop-color="#00ff00"/>
   <stop stroke="null" style="vector-effect: non-scaling-stroke;" offset="1" stop-color="#ff00ff"/>
  </linearGradient>
  <radialGradient style="vector-effect: non-scaling-stroke;" stroke="null" r="2.70841" cy="0.553125" cx="0.460938" spreadMethod="pad" id="svg_36">
   <stop style="vector-effect: non-scaling-stroke;" stroke="null" offset="0" stop-color="#482816"/>
   <stop style="vector-effect: non-scaling-stroke;" stroke="null" offset="1" stop-color="#b7d7e9"/>
  </radialGradient>
  <filter height="200%" width="200%" y="-50%" x="-50%" id="svg_39_blur">
   <feGaussianBlur stdDeviation="0" in="SourceGraphic"/>
  </filter>
  <radialGradient r="5.656854" spreadMethod="pad" id="svg_62">
   <stop offset="0" stop-color="#ed0909"/>
   <stop offset="1" stop-color="#12f6f6"/>
  </radialGradient>
  <radialGradient r="3.673284" spreadMethod="pad" id="svg_66">
   <stop offset="0" stop-color="#ed0909"/>
   <stop offset="1" stop-color="#12f6f6"/>
  </radialGradient>
  <radialGradient r="1.863641" spreadMethod="pad" id="svg_70">
   <stop offset="0" stop-color="#00bf00"/>
   <stop offset="1" stop-color="#ff40ff"/>
  </radialGradient>
  <radialGradient gradientTransform="rotate(30.413793103448278,0.5,0.5) translate(0,0.037931034482758585) scale(1,0.9241379310344828)" r="2.524226" spreadMethod="pad" id="svg_76">
   <stop offset="0" stop-color="#ff0000"/>
   <stop offset="1" stop-color="#00ffff"/>
  </radialGradient>
 </defs>
 <g stroke="null">
  <title stroke="null">background</title>
  <rect stroke="null" fill="none" id="canvas_background" height="402" width="582" y="-1" x="-1"/>
  <g stroke="null" style="vector-effect: non-scaling-stroke;" display="none" overflow="visible" y="0" x="0" height="100%" width="100%" id="canvasGrid">
   <rect fill="url(#gridpattern)" stroke-width="0" y="0" x="0" height="100%" width="100%"/>
  </g>
 </g>
 <g stroke="null">
  <title stroke="null">Layer 1</title>
  <path stroke="#000" style="vector-effect: non-scaling-stroke;" id="svg_2" d="m215.5,265.0375" opacity="0.5" stroke-width="1.5" fill="#845335"/>
  <path stroke="#000" id="svg_3" d="m239.5,157.0375c-167,322 -260,280 -259.5,279.9625" opacity="0.5" fill-opacity="null" stroke-opacity="null" stroke-width="1.5" fill="#845335"/>
  <path stroke="#000" id="svg_4" d="m327.5,153.0375c206,369 301,304 300.5,303.9625" opacity="0.5" fill-opacity="null" stroke-opacity="null" stroke-width="1.5" fill="#845335"/>
  <path stroke="#000" id="svg_5" d="m748.5,-31.9625" opacity="0.5" fill-opacity="null" stroke-opacity="null" stroke-width="1.5" fill="#845335"/>
  <path stroke="#000" id="svg_6" d="m238.5,157.0375" opacity="0.5" stroke-opacity="null" stroke-width="1.5" fill="#C48157"/>
  <path stroke="#000" id="svg_8" d="m238.5,158.0375c50,-17 36,-21 35.5,-21.0375c0.5,0.0375 17.5,12.0375 17,12c0.5,0.0375 16.5,-11.9625 16,-12c0.5,0.0375 21.5,16.0375 21.5,16.0375" opacity="0.5" stroke-opacity="null" stroke-width="1.5" fill="#C48157"/>
  <path stroke="url(#svg_32)" d="m80,391.264195c0,0 0,0 1,0c1,0 2,0 3,0c1,0 3,-0.813331 4,-0.813331c0,0 1,0 2,0c1,0 2,0 2,0c4,0.813331 4.943657,0.966525 8,1.626661c4.9282,1.064444 9.090385,0.714692 16,1.626661c3.121445,0.411977 8.072174,1.428566 12,0.813331c5.287994,-0.828273 8.946716,-2.032309 16,-2.439992c5.984909,-0.345929 14.965988,0.406243 26,0.813331c10.988693,0.405399 16.096603,0.379213 22,-0.813331c3.069031,-0.619976 5.045105,-0.690045 12,-2.439992c6.042038,-1.520254 12.01503,-2.368284 24,-4.066653c11.014404,-1.560836 18,-3.253323 25,-4.066653c7,-0.813331 12.926575,-1.887603 21,-3.253323c5.955322,-1.007405 10.076111,-1.315407 11,-1.626661c1.306549,-0.440174 2,-0.813331 3,-0.813331c0,0 1.025818,-0.26057 3,0c3.121429,0.411977 7.925781,2.031341 13,2.439992c3.98053,0.320587 6,0 8,0.813331c0,0 4.769928,1.259536 9,2.439992c4.823029,1.345912 7.805664,1.991355 12,3.253323c3.867004,1.163454 11.051636,2.732208 15,3.253323c3.121429,0.411977 6,1.626661 9,1.626661c2,0 4,0 10,0c4,0 9,0 13,0c4,0 9,-0.813331 13,-0.813331c2,0 4,0 7,0c5,0 8.01947,-0.320587 12,0c5.074219,0.408651 7.292908,1.051561 8,1.626661c1.414215,1.150224 4,0.813331 4,0.813331c2,0.813331 3,0.813331 4,1.626661c1,0.813331 3,1.626661 4,1.626661c1,0 3,0.813331 4,0.813331c0,0 2.076111,0.502077 3,0.813331c1.306549,0.440174 2,0.813331 5,1.626661c0,0 3.076111,-0.311254 4,0c1.306549,0.440174 3,0.813331 4,0.813331c1,0 3,0.813331 4,0.813331c1,0 2.693451,0.373157 4,0.813331c0.923889,0.311254 3,0 4,0c0,0 1,0.813331 2,0.813331c1,0 2,0 2,0c1,0.813331 3,0.813331 4,0.813331l0,0" id="svg_34" stroke-opacity="0.78" stroke-width="60" fill="none"/>
  <line filter="url(#svg_39_blur)" stroke-linecap="null" stroke-linejoin="null" id="svg_39" y2="181.8375" x2="286" y1="399.8375" x1="466" fill-opacity="null" stroke-opacity="null" stroke-width="99" stroke="url(#svg_36)" fill="none"/>
  <line stroke-linecap="null" stroke-linejoin="null" id="svg_40" y2="191.8375" x2="277" y1="395.8375" x1="82" fill-opacity="null" stroke-opacity="null" stroke-width="99" stroke="url(#svg_36)" fill="none"/>
  <path d="m274,167.837494c0,0 -0.247437,0.010223 0,3c0.501709,6.062042 3.498291,10.937958 4,17c0.164948,1.993179 0.337494,4.310013 2,7c0.7435,1.203003 0.770233,1.026749 1,2c0.513733,2.176254 1,3 1,3c0,3 1.486267,3.823746 2,6c0.459503,1.946503 0,5 0,8c0,4 0,8 0,13c0,4 -0.498291,6.937958 -1,13c-0.329926,3.986374 -0.881348,8.025208 -2,13c-0.904572,4.022644 -1.511261,9.029968 -2,13c-0.503784,4.092224 -1,5 -1,6c0,1 -0.188354,3.943665 -1,7c-1.308746,4.928192 -2.167786,9.057983 -3,15c-1.009766,7.209747 -2.912323,12.03067 -4,15c-1.852264,5.05658 -4,7 -4,10c0,4 0,9 0,13c0,3 0,7 0,11c0,4 0,9 0,13c0,5 0,7 0,8c0,1 0,2 0,3c0,1 -0.076111,0.61731 -1,1c-1.306549,0.541199 -1.0979,2.824432 -3,4c-0.850647,0.525726 -3.03067,1.912323 -6,3c-5.056595,1.852264 -9.132996,3.569519 -13,5c-2.097168,0.775787 -5,2 -5,2c-1,0 -2.917603,-1.386871 -4,-4c-0.765366,-1.847748 -2.376694,-3.887329 -4,-10c-1.308762,-4.928192 -3.496231,-7.907776 -4,-12c-0.24437,-1.985016 0,-4 0,-9c0,-3 -0.488739,-7.029968 0,-11c0.503769,-4.092224 3.486252,-7.823761 4,-10c0.459503,-1.946503 0.702667,-3.541351 4,-5c3.770645,-1.66803 9.979233,-4.095856 19,-6c9.978149,-2.106262 20.967651,-4.116882 28,-6c3.982788,-1.066498 8.668915,-2.620209 12,-4c4.710876,-1.951324 6.038727,-1.48056 9,-1c3.121429,0.506531 6.818237,1.606934 11,5c2.799835,2.271759 4.710205,4.042908 5,5c1.04483,3.450836 4,6 6,10c2,4 4,9 5,12c2,6 3.731445,10.076904 5,14c1.65686,5.123962 3.497559,8.925781 4,14c0.394165,3.98053 1.617004,7.74707 3,12c1.881073,5.784607 2.95517,8.549164 4,12c0.289795,0.957092 0,3 0,4c0,0 -1,2 -3,2c-3,0 -7.150543,0.341522 -12,-2c-7.260254,-3.505554 -12.222717,-7.723999 -16,-11c-1.068359,-0.926605 -2.898346,-6.29184 -5,-12c-2.014648,-5.471863 -4.824432,-8.0979 -6,-10c-1.051453,-1.701294 0,-3 0,-3c1,-1 5.024323,-1.492676 10,-1c5.074219,0.502441 12.870758,2.412262 23,9c10.094482,6.565155 14.851135,11.485321 17,16c1.772003,3.7229 2.968536,7.412079 5,11c1.393555,2.461304 3.705475,5.346191 6,7c1.813995,1.307465 1.852722,2.173096 3,3c1.813995,1.307465 3,3 3,3c0,0 -0.079712,-0.847961 -4,-3c-5.11145,-2.805908 -12.988129,-7.060272 -23,-9c-15.981628,-3.096313 -24,-4 -29,-4c-5,0 -11.012573,0.354431 -16,0c-7.053284,-0.501251 -11.761841,-4.491608 -26,-6c-6.96106,-0.737457 -13,-1 -22,-3c-9,-2 -18.098969,-2.276733 -28,-4c-8.124069,-1.414001 -13.191559,-2.09079 -20,-4c-7.332916,-2.056274 -11,-4 -12,-4c0,0 -1.418854,0.418854 -3,2c-1.581146,1.581146 -3,3 -4,4c-1,1 -1.186005,1.692535 -3,3c-1.147263,0.826904 -3,2 -8,2c-4,0 -9,1 -14,1c-6,0 -13,0 -17,0c-4,0 -8.647491,-0.972504 -13,-2c-3.892998,-0.919006 -5,-1 -7,-1c-1,0 -3,0 -3,0c-2,1 -3.474266,2.149353 -4,3c-1.175568,1.9021 -2.91761,0.386871 -4,3c-0.382683,0.923889 -2.173096,2.852722 -3,4c-1.307449,1.813995 -2.418861,2.418854 -4,4c-1.581139,1.581146 -1.611046,0.92807 -4,3c-1.689247,1.465088 -1,3 -3,3c-1,0 -2,1 0,1c3,0 14.002022,0.291595 35,0c36.010422,-0.500061 58.872681,-3.963898 78,-6c17.926468,-1.908264 38,-3 57,-3c19,0 46,-1 58,-1c10,0 17,0 22,0c4,0 9.002777,0.166382 14,0c15.024963,-0.500275 25,-1 35,-1c13,0 21.020111,-0.567108 29,0c7.053284,0.501251 18.154938,0.07782 30,2c6.242889,1.013092 11.026764,3.770233 12,4c2.176239,0.513733 2.292908,1.292908 3,2c0.707092,0.707092 0.420441,0.085815 1,2c1.04483,3.450836 5.519287,6.558197 8,10c1.307465,1.813995 1,2 1,2c0,-1 -1,-1 -1,-1l-1,0" id="svg_46" fill-opacity="null" stroke-width="55" stroke="url(#svg_36)" fill="none"/>
  <path d="m478,391.899238c0,0 -1,-1 -2,-2c-2,-2 -5.40213,-6.543579 -10,-11c-3.590332,-3.479889 -8,-7 -12,-11c-2,-2 -4,-4 -5,-5c-1,-1 -2.474274,-3.149353 -3,-4c-1.175568,-1.9021 -4,-4 -5,-7c-1,-3 -2.569519,-6.132996 -4,-10c-0.775787,-2.097168 -1.584412,-4.35498 -3,-7c-1.701294,-3.178925 -3.337494,-5.309998 -5,-8c-1.487,-2.406006 -2.337494,-5.309998 -4,-8c-0.7435,-1.203003 -2.474274,-3.149353 -3,-4c-1.175568,-1.9021 -2.824432,-2.0979 -4,-4c-0.525726,-0.850647 -1.173096,-1.852722 -2,-3c-1.307465,-1.813995 -2.513,-2.593994 -4,-5c-1.662506,-2.690002 -1.337494,-4.309998 -3,-7c-2.230499,-3.609009 -4.519287,-4.558197 -7,-8c-2.614899,-3.627991 -5.679474,-5.571106 -8,-10c-1.467621,-2.801086 -4.144287,-5.934143 -5,-8c-1.210144,-2.92157 -2.824432,-9.0979 -4,-11c-2.628662,-4.253265 -3.442963,-6.638702 -5,-9c-2.964478,-4.495758 -2.190277,-6.881516 -4,-10c-2.24469,-3.867996 -2.746399,-8.161194 -6,-13c-2.789948,-4.149246 -3.692535,-6.186005 -5,-8c-0.826904,-1.147263 -1.948547,-4.298691 -3,-6c-1.175568,-1.902115 -3.337494,-2.310013 -5,-5c-0.7435,-1.203003 -1.692535,-2.186005 -3,-4c-0.826904,-1.147263 -2.692535,-1.186005 -4,-3c-0.826904,-1.147263 -2.692535,-2.186005 -4,-4c-0.826904,-1.147263 -2.149353,-1.474274 -3,-2c-1.9021,-1.175568 -2.186005,-2.692551 -4,-4c-1.147278,-0.826904 -0.693451,-2.458801 -2,-3c-1.847748,-0.765366 -2,-1 -3,-1c-1,0 -2,-1 -3,-2c-1,-1 -1.298706,-0.948532 -3,-2c-1.9021,-1.175568 -1.852722,-3.173096 -3,-4c-1.813995,-1.307449 -3,-3 -3,-3c-1,-1 -1.692535,-1.186005 -3,-3c-0.826904,-1.147263 -1.585785,-0.585785 -3,-2c-0.707092,-0.707108 -1.61731,-2.076126 -2,-3c-0.541199,-1.306564 -2,-1 -3,-1c-1,0 -1,-2 -2,-2c-1,0 -2,-1 -3,-2c0,0 -0.852722,-0.173096 -2,-1c-1.813995,-1.307449 -1.823761,-1.486252 -4,-2c-1.946503,-0.459503 -4,-1 -6,-1c-2,0 -4,0 -4,0c-2,0 -3,0 -4,0c-2,0 -3,0 -4,0l-2,0l-1,0" id="svg_48" fill-opacity="null" stroke-width="55" stroke="url(#svg_36)" fill="none"/>
  <path d="m46,393.837494c0,0 4.372013,-3.385101 8,-6c4.589077,-3.307617 8.763931,-5.763947 11,-8c2.236069,-2.236053 3.346191,-3.705475 5,-6c1.307449,-1.813995 2.91761,-1.386871 4,-4c0.382683,-0.923889 2,-2 3,-3c1,-1 2.186005,-2.692535 4,-4c1.14727,-0.826904 2.076118,-2.61731 3,-3c2.613129,-1.082397 5.819359,-5.221497 7,-6c4.495758,-2.964478 10.507378,-7.708923 16,-11c6.532837,-3.914337 14.228851,-6.729614 19,-11c4.215088,-3.772675 10.569839,-9.454651 19,-17c4.771149,-4.270386 8.410919,-9.692383 13,-13c3.627991,-2.614899 7,-5 8,-6c1,-1 2.097885,-2.824432 4,-4c0.850647,-0.525726 3,-2 4,-3c1,-1 2.638718,-2.442963 5,-4c4.495758,-2.964478 9.418854,-5.418854 11,-7c3.162277,-3.162292 5.70546,-4.346191 8,-6c3.627991,-2.614899 6.504456,-4.566315 11,-8c6.407135,-4.893738 9.222733,-6.723999 13,-10c2.136749,-1.853195 4.763931,-4.763931 7,-7c2.236069,-2.236069 1.692551,-5.186005 3,-7c2.480713,-3.441803 4.95517,-4.549149 6,-8c0.869354,-2.871277 1.49295,-7.234009 4,-12c1.678558,-3.190994 4.331985,-9.229355 6,-13c1.458633,-3.297333 4.2565,-6.796997 5,-8c1.662506,-2.689987 2.513,-4.593994 4,-7c1.662506,-2.689987 2.458801,-3.693436 3,-5c0.38269,-0.923874 1.458801,-0.693436 2,-2c0.38269,-0.923874 0.486267,-0.823746 1,-3c0.229767,-0.973251 1,-2 1,-2c1,-1 1.458801,-1.693436 2,-3c0.38269,-0.923874 0,-1 0,-2c0,-1 0.292908,-2.292892 1,-3c0.707092,-0.707108 1,0 1,-1c0,-1 0.292908,-2.292892 1,-3c0.707092,-0.707108 1,0 1,-1c0,-2 0.292908,-2.292892 1,-3c0.707092,-0.707108 1,-1 1,-2l0,-2l1,0" id="svg_49" fill-opacity="null" stroke-width="55" stroke="url(#svg_36)" fill="none"/>
  <path stroke="url(#svg_36)" d="m324,459.837494c-1.659575,-13.086956 -3.026667,-45.624426 -6.638298,-52.347826c-1.615158,-3.006749 -9.664965,-45.624426 -13.276596,-52.347826c-3.230366,-6.013498 -2.810408,-19.091269 -4.978724,-26.173913c-1.533263,-5.008253 -1.367093,-19.450513 -4.978724,-26.173913c-3.230366,-6.013498 -6.003195,-14.083215 -6.638298,-26.173913c-0.89816,-17.09895 -5.464826,-16.920027 -6.638298,-26.173913c-1.173472,-9.253886 0.244419,-28.439209 -1.659575,-39.260869c-3.010461,-17.110532 -4.978724,-26.173913 -6.638298,-39.260869c-1.659575,-13.086956 -3.319149,-13.086956 -4.978724,-13.086956c-3.319149,0 -4.978724,0 -6.638298,0c0,0 -1.659575,0 -3.319149,0c-1.659575,0 -3.319149,0 -4.978724,0c-1.659575,0 -3.319149,0 -4.978724,0l0,0l-1.659575,0" id="svg_50" fill-opacity="null" stroke-width="55" fill="none"/>
  <polyline stroke-linecap="round" id="svg_51" points="153,143.8375 154,143.8375 " fill-opacity="null" stroke-width="55" fill="none"/>
  <path d="m257,125.837502c-1,0 -3,2 -3,2c-2,0.999992 -3.474274,3.149345 -4,3.999992c-1.175568,1.902115 -2.418854,2.418854 -4,4c-1.581146,1.581146 -2.076126,1.61731 -3,2c-1.306564,0.541199 -1,2 -1,2c0,-1 -0.285873,-1.21167 2,-4c1.793198,-2.187347 3,-4 5,-5l0,-1l1,0" id="svg_52" fill-opacity="null" stroke-width="55" fill="none"/>
  <path d="m248,134.837494c-248,-134.837494 -248,-134.837494 -248,-134.837494l248,135.837494l0,0l-1,1" id="svg_53" fill-opacity="null" stroke-width="55" fill="none"/>
  <path d="m42.982166,410.195024c0,0 1.234566,0 1.234566,0c0,1.234558 1.328529,1.707001 2.469124,1.234558c1.613037,-0.668152 1.820084,-2.653503 2.469131,-3.703674c1.451317,-2.348267 3.70369,-2.469147 4.938255,-3.703705c0,0 0.093979,-0.762115 1.234566,-1.234558c1.613029,-0.668152 1.234558,-2.469116 2.469124,-3.703705c0,0 0.95092,-1.267578 1.234566,-2.469116c0.634247,-2.686707 4.304008,-2.251526 4.938255,-4.938263c0.567284,-2.403076 1.596161,-2.830719 2.469124,-3.703674c0.872971,-0.872955 1.596161,-0.361603 2.469131,-1.234558c0.872986,-0.872986 1.234566,-2.469147 2.469131,-2.469147c1.234558,0 2.090652,-1.800964 3.70369,-2.469116c1.140594,-0.472443 3.703682,-1.234558 4.938255,-2.469147c1.234558,-1.234558 1.957764,-3.192291 3.70369,-4.938232c1.745941,-1.745941 3.324127,-1.464233 4.938255,-3.703705c1.020866,-1.416382 3.486946,-1.355408 4.938255,-3.703705c0.64904,-1.050171 0.229637,-2.089539 2.469131,-3.703674c1.416382,-1.020874 1.820084,-2.653534 2.469131,-3.703705c1.451317,-2.348267 4.270111,-2.090637 4.938255,-3.703674c0.472458,-1.140625 2.682823,-2.287323 3.70369,-3.703705c1.614128,-2.239471 1.234566,-2.469116 2.469124,-3.703674c1.234573,-1.234589 3.054642,-2.653534 3.70369,-3.703705c1.451324,-2.348267 3.703705,-3.703705 4.938263,-4.938263c1.234558,-1.234558 2.105499,-2.896515 4.938263,-4.938263c2.239471,-1.614136 3.192322,-3.192291 4.938248,-4.938232c1.745941,-1.745941 2.852783,-1.894989 4.938263,-3.703705c2.949326,-2.557922 3.993332,-2.657074 4.938248,-4.938263c0.668152,-1.613037 4.270111,-2.090637 4.938263,-3.703674c0.944916,-2.281189 3.70369,-3.703705 4.938248,-4.938263c1.234573,-1.234558 3.70369,-2.469116 4.938263,-3.703705c1.234558,-1.234558 2.469131,-2.469116 3.70369,-3.703674c0,0 -0.220901,-2.837891 3.70369,-4.938263c1.088486,-0.58255 1.751663,-1.751678 3.70369,-3.703705c1.952011,-1.952026 3.231247,-2.56308 3.70369,-3.703674c1.336288,-3.226074 4.270126,-3.325226 4.938263,-4.938263c0.472443,-1.140594 2.469116,-2.469116 3.70369,-3.703705c1.234558,-1.234558 3.486938,-1.355408 4.938263,-3.703674c0.649048,-1.050171 1.234558,-3.703705 2.469116,-4.938263c1.234573,-1.234558 1.596161,-4.065277 2.469131,-4.938248c0.872971,-0.872971 1.234573,-1.234573 2.469131,-2.469131c2.469131,-2.469131 3.420044,-2.502151 3.70369,-3.70369c0.634247,-2.686722 2.469116,-3.70369 3.70369,-4.938263c1.234573,-1.234573 0.762131,-2.56311 1.234573,-3.70369c0.668137,-1.613022 2.469116,-2.469131 3.70369,-3.70369c1.234558,-1.234558 0.289658,-1.422516 1.234558,-3.70369c0.668152,-1.613052 1.996689,-2.56311 2.469131,-3.70369c0.668137,-1.613037 2.469131,-2.469131 2.469131,-3.703705c0,0 0.72319,-3.192307 2.469131,-4.938248c0.872971,-0.872971 2.469116,-1.234573 2.469116,-1.234573c0,-1.234558 0,-2.469116 1.234573,-3.70369c0,0 0.950912,-0.03302 1.234558,-1.234558c0.634247,-2.686722 2.185486,-3.73671 2.469131,-4.938263c0.634247,-2.686707 1.596161,-2.830719 2.469131,-3.70369c0.872971,-0.872971 2.469116,-1.234558 2.469116,-2.469131c0,-2.469116 1.234558,-2.469116 2.469131,-3.70369c1.234573,-1.234573 2.469131,-2.469116 2.469131,-3.70369c0,-1.234558 1.234558,-2.469131 2.469131,-4.938248c0,0 1.234558,-1.234573 1.234558,-2.469131c0,-1.234573 0,-2.469131 1.234573,-2.469131c0,0 0,-1.234558 0,-2.469131c0,-1.234558 0,-2.469131 0,-2.469131c1.234558,-1.234558 1.80098,-2.090652 2.469116,-3.70369c0.472443,-1.140579 -0.283646,-2.502136 0,-3.70369c0.634247,-2.686722 2.469131,-2.469131 2.469131,-3.70369c0,-1.234558 0,-2.469131 0,-3.70369c0,0 -0.379578,-0.229645 1.234558,-2.469131c1.020874,-1.416367 1.234558,-2.469131 1.234558,-2.469131l0,-1.234558l0,-1.234558" id="svg_55" fill-opacity="null" stroke-opacity="null" stroke-width="55" stroke="url(#svg_36)" fill="none"/>
  <path d="m536.048584,398.811096c0,0 -1.59613,-0.361603 -2.469116,-1.234558c-0.872986,-0.872955 -2.105469,-2.896515 -4.938232,-4.938263c-2.239502,-1.614136 -5.167908,-3.324127 -7.40741,-4.938263c-1.416382,-1.020874 -2.56311,-0.762115 -3.703674,-1.234558c-1.613037,-0.668152 -2.469116,-2.469116 -3.703674,-2.469116c0,0 0.472412,-0.093964 0,-1.234558c-0.668152,-1.613037 -2.56311,-0.762146 -3.703705,-1.234589c-1.613037,-0.668121 -1.052765,-2.6828 -2.469147,-3.703674c-2.239471,-1.614136 -3.231201,-1.328552 -3.703674,-2.469147c-0.668152,-1.613037 -4.065308,-2.830719 -4.938263,-3.703674c-0.872955,-0.872955 -1.355408,-3.486938 -3.703705,-4.938263c-1.050171,-0.649048 -3.324097,-2.698761 -4.938232,-4.938263c-1.020874,-1.416382 -2.589996,-3.486908 -4.938263,-4.938232c-1.050171,-0.649048 -2.469147,-2.469147 -4.938263,-4.938263c-1.234558,-1.234558 -3.113831,-5.408325 -6.172821,-8.641968c-4.242065,-4.484253 -6.833221,-5.321899 -8.641937,-7.407379c-2.557922,-2.94931 -2.572815,-4.889069 -3.703705,-7.407379c-2.723511,-6.06488 -4.938263,-11.111084 -6.172821,-13.5802c-1.234558,-2.469116 -2.986237,-2.986237 -4.938263,-4.938263c-1.952026,-1.951996 -2.986206,-2.986237 -4.938232,-4.938263c-1.952026,-1.952026 -2.0896,-2.69873 -3.703705,-4.938232c-1.020874,-1.416382 -2.469116,-2.469147 -3.703705,-3.703705c-2.469116,-2.469116 -4.458038,-2.38031 -7.407379,-4.938263c-2.08548,-1.808716 -4.938232,-3.703674 -7.407379,-6.172821c-1.234558,-1.234558 -3.703705,-2.469086 -6.172821,-4.938232c-1.234558,-1.234589 -2.6828,-2.287354 -3.703674,-3.703705c-1.614136,-2.239471 -3.054657,-3.888092 -3.703705,-4.938263c-1.451324,-2.348267 -3.703705,-3.703674 -4.938263,-4.938263c-1.234558,-1.234558 -2.56308,-3.231232 -3.703674,-3.703674c-1.613037,-0.668121 -0.12085,-3.486938 -2.469147,-4.938263c-1.050171,-0.649048 -1.751678,-2.986237 -3.703674,-4.938248c-1.952026,-1.952026 -3.325226,-4.270111 -4.938263,-4.938263c-1.140594,-0.472443 -2.469116,-2.469116 -3.703705,-3.70369c-1.234558,-1.234558 -3.703674,-3.703705 -4.938232,-4.938263c-1.234589,-1.234573 -1.234589,-2.469116 -2.469147,-2.469116l-1.234558,-1.234573l-1.234558,0l0,-1.234558" id="svg_56" fill-opacity="null" stroke-opacity="null" stroke-width="55" stroke="url(#svg_36)" fill="none"/>
  <polyline stroke-linecap="round" id="svg_61" points="175.5559168544778,65.47881974386235 175.5559168544778,65.47881974386235 " fill-opacity="null" stroke-opacity="null" stroke-width="55" stroke="url(#svg_36)" fill="none"/>
  <path d="m297.77774,151.8983c0,0 -1.234558,0 -1.234558,0c0,1.234558 0,2.469131 0,2.469131c0,2.469131 0,3.70369 0,4.938248c0,1.234573 0.762115,1.328552 1.234558,2.469131c0.668152,1.613037 1.234589,2.469131 2.469147,2.469131c0,0 1.234558,0 1.234558,0c0,1.234558 0.762115,2.56311 1.234558,3.70369c0.668152,1.613022 0.361572,1.596161 1.234558,2.469131c0.872986,0.872986 1.234589,1.234558 1.234589,2.469131c0,1.234558 1.234558,2.469116 1.234558,3.70369c0,1.234558 0,2.469116 0,2.469116c2.469116,1.234573 4.270111,3.325226 4.938263,4.938263c0.472443,1.140579 1.234558,3.70369 2.469116,4.938263c1.234558,1.234558 0.762115,2.563095 1.234558,3.70369c0.668152,1.613022 0.289673,2.657089 1.234558,4.938248c0.668152,1.613052 1.448273,1.052765 2.469147,2.469131c1.614136,2.239487 1.800964,3.325226 2.469116,4.938263c0.472443,1.140579 0,3.70369 1.234558,4.938248c1.234558,1.234573 2.469147,2.469131 2.469147,3.70369c0,1.234573 1.234558,3.70369 1.234558,4.938263c0,1.234558 0,2.469131 1.234558,3.70369c1.234558,1.234558 1.234558,1.234558 1.234558,3.70369c0,1.234573 1.800995,2.090652 2.469147,3.70369c0.944916,2.281174 0,3.703705 0,4.938263c0,1.234558 1.234558,2.469131 1.234558,3.70369c0,2.469131 0,3.70369 1.234558,4.938263c0,0 0,2.469116 0,3.70369c0,1.234558 1.800964,3.325226 2.469116,4.938248c0.472443,1.140594 1.800995,2.090668 2.469147,3.70369c0.944885,2.281174 1.996674,2.563095 2.469116,3.70369c0.668121,1.613037 3.797668,3.231262 4.938263,3.703705c3.226044,1.336273 3.703705,3.703674 4.938263,4.938263c2.469116,2.469116 4.938263,4.938232 4.938263,4.938232c2.469116,2.469147 3.325195,4.270111 4.938232,4.938263c1.140594,0.472443 2.56311,1.996704 3.703705,2.469147c1.613037,0.668152 0.361603,1.596161 1.234558,2.469116c0.872955,0.872955 2.653503,-0.649048 3.703705,0c2.348267,1.451324 2.287292,3.917389 3.703674,4.938263c2.239502,1.614136 5.059082,3.486938 7.407379,4.938263c1.050201,0.649078 3.703705,1.234558 4.938263,2.469116c1.234558,1.234558 3.703705,2.469116 3.703705,2.469116c1.234558,0 1.052734,1.448273 2.469116,2.469147c2.239471,1.614136 3.703705,2.469116 3.703705,2.469116c3.703674,2.469116 3.703674,3.703705 4.938232,4.938263c1.234589,1.234558 1.355408,3.486938 3.703705,4.938263c1.050171,0.649048 0.477631,3.601959 3.703705,4.938232c1.140594,0.472443 2.469116,2.469147 2.469116,3.703705c0,1.234558 0.762115,2.56308 1.234558,3.703705c0.668152,1.613037 1.996704,2.56308 2.469147,3.703674c0.668152,1.613037 1.234558,2.469147 1.234558,3.703705c0,0 0.566406,0.856079 1.234558,2.469116c0.472443,1.140594 0.361603,1.596161 1.234558,2.469116c0.872986,0.872986 0,2.469147 0,3.703705c0,1.234558 0,1.234558 0,3.703705c0,1.234558 0,2.469116 0,2.469116l0,1.234558l0,1.234558" id="svg_63" fill-opacity="null" stroke-width="11" stroke="url(#svg_62)" fill="none"/>
  <path d="m415.06134,385.230896c0,0 0,-1.234558 0,-2.469116c0,-1.234589 -0.600311,-2.251556 -1.234558,-4.938263c-0.28363,-1.201538 0,-1.234558 -1.234589,-2.469147c0,0 -0.566406,-0.856079 -1.234558,-2.469116c-0.472443,-1.140594 0,-2.469116 0,-3.703674c0,-1.234589 0,-2.469147 0,-3.703705c0,-1.234558 -1.234558,-2.469116 -1.234558,-4.938263c0,-1.234558 0,-2.469116 0,-3.703674c0,0 0,0 0,-1.234589c0,-1.234558 -0.361603,-1.596161 -1.234558,-2.469116c-0.872955,-0.872955 0,-2.469116 0,-3.703705c0,-1.234558 1.234558,-1.234558 1.234558,-1.234558c1.234558,-1.234558 2.469116,-1.234558 3.703705,-1.234558c1.234558,0 1.234558,0 2.469116,0c1.234558,0 2.469116,0 3.703705,0c0,0 0.184387,-0.649048 1.234558,0c2.348267,1.451324 2.469116,2.469116 2.469116,3.703705l1.234558,0l0,1.234558l1.234589,0" id="svg_64" fill-opacity="null" stroke-width="11" stroke="url(#svg_66)" fill="none"/>
  <path d="m286.666687,159.305679c0,0 0,1.234573 0,2.469131c0,1.234558 0,1.234558 0,2.469131c0,1.234558 0,2.469131 0,3.70369c0,1.234558 -1.596191,0.361588 -2.469147,1.234558c-0.872986,0.872971 -0.361603,1.596161 -1.234558,2.469131c-0.872986,0.872971 -0.361603,1.596161 -1.234558,2.469131c-0.872955,0.872971 0.472443,2.56311 0,3.70369c-0.668152,1.613022 -2.830719,0.361572 -3.703705,1.234558c-0.872986,0.872971 -0.361572,2.830734 -1.234558,3.703705c-0.872955,0.872971 -2.830719,0.361588 -3.703674,1.234558c-0.872955,0.872971 -1.328552,1.996689 -2.469147,2.469131c-1.613037,0.668137 -2.469116,1.234558 -3.703674,2.469131c0,0 -1.328552,-0.472443 -2.469147,0c-1.613037,0.668137 -2.469116,1.234558 -2.469116,1.234558c0,1.234558 -1.234558,1.234558 -2.469147,1.234558c-1.234558,0 -2.469116,0 -2.469116,0c-1.234558,0 -2.090668,1.800995 -3.70369,2.469131c-1.140579,0.472443 -1.234558,0 -2.469131,0c-1.234558,0 -2.469131,0 -3.70369,0c0,0 -0.187958,0.289673 -2.469131,1.234573c-1.613022,0.668137 -1.820084,1.41893 -2.469131,2.469116c-1.451309,2.348282 -3.420044,1.267593 -3.70369,2.469131c-0.634247,2.686722 -0.58551,3.888077 -1.234558,4.938263c-1.451324,2.348282 -3.70369,2.469116 -3.70369,3.70369c0,1.234558 0.872971,2.830719 0,3.70369c-0.872971,0.872971 -1.234573,1.234558 -1.234573,1.234558c0,1.234573 0,3.70369 0,4.938263c0,1.234558 -1.234558,2.469131 -1.234558,3.70369c0,1.234558 -0.600311,2.251541 -1.234558,4.938263c-0.283646,1.201538 0,2.469116 0,3.70369c0,1.234558 0,2.469131 0,2.469131c0,1.234558 1.234558,3.70369 1.234558,4.938248c0,1.234558 0.566422,3.325226 1.234558,4.938263c0.472443,1.140579 0.093979,3.231232 1.234573,3.70369c1.613022,0.668137 3.035553,2.090668 3.70369,3.70369c0.472443,1.140579 1.328537,1.996674 2.469131,2.469131c1.613022,0.668137 1.80098,2.090652 2.469116,3.70369c0.472443,1.140594 2.252396,1.355408 3.703705,3.703705c0.649048,1.050171 1.234558,2.469116 1.234558,2.469116c0,1.234558 2.469131,2.469116 3.70369,3.703674c1.234573,1.234589 0.642181,1.634186 2.469131,3.703705c2.945877,3.337036 4.220779,4.220825 6.172806,6.172821c1.952026,1.952026 2.469147,1.234558 4.938263,3.703705c1.234558,1.234558 2.665771,1.988434 6.172821,3.703674c3.998688,1.955688 7.593781,1.771149 9.876526,4.938263c0.721863,1.001526 0.361572,2.830719 1.234558,3.703705c0.872955,0.872955 1.234558,1.234558 2.469116,2.469116c1.234558,1.234558 3.231262,2.56308 3.703705,3.703674c0.668121,1.613037 1.596161,2.83075 2.469116,3.703705c0.872955,0.872955 1.820099,1.418945 2.469147,2.469116c1.451294,2.348297 3.035522,2.090668 3.703674,3.703705c0.472443,1.140594 1.234558,1.234558 1.234558,2.469116c0,1.234589 1.524261,1.422546 2.469147,3.703705c0.668152,1.613037 1.234558,2.469116 1.234558,2.469116c0,0 1.234558,0 1.234558,1.234589c0,1.234558 0.361603,1.596161 1.234558,2.469116c0.872955,0.872955 1.8349,1.016968 2.469147,3.703705c0.28363,1.201538 0,2.469116 0,2.469116l0,1.234558" id="svg_67" fill-opacity="null" stroke-width="11" stroke="url(#svg_66)" fill="none"/>
  <path d="m244.6915,149.42917c0,1.23457 0,2.46913 -1.23456,4.93826c0,0 -1.23457,2.46913 -1.23457,3.70369c0,1.23456 0,2.46913 0,3.70369c0,1.23456 -1.23456,1.23456 -1.23456,2.46913c0,0 -1.23456,2.46913 -1.23456,3.70369c0,1.23456 0,1.23456 0,2.46913c0,1.23456 -1.23457,1.23456 -1.23457,2.46913c0,1.23456 -1.23456,1.23456 -1.23456,2.46912c0,1.23457 0.87297,2.83072 0,3.70369c-0.87297,0.87297 -1.59616,1.59616 -2.46913,2.46913c-1.74594,1.74594 -0.56642,2.09067 -1.23456,3.70369c-0.47246,1.1406 -1.23457,2.46913 -1.23457,3.70371c0,0 0,1.23455 0,2.46911c0,1.23458 -0.56643,2.09067 -1.23456,3.70371c-0.47245,1.14058 0,2.46911 0,3.70369c0,1.23456 -1.23456,2.46911 -1.23456,3.70369c0,1.23455 0.9449,1.42251 0,3.70369c-1.33629,3.22607 -2.46913,3.70369 -2.46913,4.93826c0,2.46912 -0.60033,2.25153 -1.23458,4.93825c-0.28364,1.20153 -0.95091,1.26757 -1.23455,2.46913c-0.63425,2.68672 -2.46913,3.70369 -2.46913,4.93825c0,1.23457 -1.23456,2.46913 -2.46914,4.93826c-1.23455,2.46913 -1.82006,3.88808 -2.46911,4.93826c-1.45133,2.34828 -3.23123,2.5631 -3.70369,3.70369c-0.66815,1.61304 -0.3616,1.59615 -1.23458,2.46912c-0.87297,0.87297 -2.46913,1.23457 -2.46913,2.46913c0,1.23457 -1.80098,0.85611 -2.46911,2.46913c-0.47245,1.14058 0,2.46913 -2.46913,3.70369c0,0 -2.46914,1.23457 -2.46914,3.70369c0,1.23457 -1.80098,2.09065 -2.46913,3.70369c-0.47246,1.14061 -0.09398,1.99669 -1.23456,2.46913c-1.61302,0.66815 0.51137,3.19232 -1.23455,4.93826c-0.87297,0.87299 -2.46914,2.46912 -2.46914,3.70368c0,1.23459 -0.3616,1.59616 -1.23457,2.46914c-1.74592,1.74595 -1.23456,3.70368 -1.23456,3.70368c0,2.46915 0,4.93826 0,4.93826c0,1.23456 -0.56642,3.32523 -1.23455,4.93826c-0.47245,1.1406 0,2.46912 -1.23458,4.93827c0,0 0,1.23456 0,3.70367c0,1.23459 0,2.46915 0,3.70371c0,2.46911 0,2.46911 0,3.70367c0,3.70371 0,3.70371 0,4.93826c0,1.23456 0,3.70371 1.23458,3.70371c0,0 0,2.46912 0,3.70367c0,1.23459 0,1.23459 0,2.46915c0,1.23456 0,2.46912 0,3.70367c0,0 1.23455,0 1.23455,1.23459c0,1.23456 0,2.46912 0,3.70368c0,2.46914 -0.56642,4.55978 -1.23455,6.17282c-0.47245,1.14059 -1.23458,3.7037 -1.23458,3.7037c-1.23456,1.23456 -1.17103,1.60334 -2.46913,3.70368c-1.45131,2.34826 -3.52188,2.68283 -4.93825,3.7037c-4.47899,3.22827 -7.17608,2.72446 -9.87651,4.93827c-3.44235,2.82205 -4.93826,2.46911 -6.17282,2.46911c-2.46913,0 -3.79767,0.76212 -4.93826,1.23456c-1.61302,0.66815 -3.70369,1.23456 -4.93825,1.23456c-1.23457,0 -2.69876,-0.37955 -4.93826,1.23459c-1.41637,1.02087 -2.46913,1.23455 -3.70369,1.23455c-1.23456,0 -1.46421,-0.37957 -3.70369,1.23456c-1.41637,1.02088 -2.46913,1.23456 -2.46913,2.46912l-1.23456,0l0,-1.23456" id="svg_69" stroke-width="11" stroke="#bc002f" fill="none"/>
  <polyline stroke-linecap="round" id="svg_71" points="54.56864448920083,24.73820762086092 54.56864448920083,24.73820762086092 " stroke-width="11" stroke="url(#svg_70)" fill="none"/>
  <path stroke="url(#svg_70)" d="m18.766289,395.852319c0,0 1.234564,0 1.234564,0c1.234564,0 2.090658,-0.594488 3.703691,-1.295766c1.140589,-0.495866 1.234564,0 3.703691,0c1.234566,0 2.090645,-0.59452 3.703693,-1.295798c1.140585,-0.495866 1.234564,0 2.469126,0c1.234566,0 1.234566,-1.295766 2.469131,-1.295766c1.234562,0 2.469128,0 3.70369,0c0,0 1.234566,0 2.469128,0c1.234566,0 2.469128,0 2.469128,0c2.469128,0 3.703693,0 4.938259,0c1.234562,0 3.70369,0 4.938255,0c1.234562,0 2.469128,0 3.70369,0c1.234566,0 1.234566,0 2.469128,0c1.234566,0 2.469131,0 3.703697,0c1.234558,0 2.469124,0 4.938255,0c4.938255,0 11.184723,-0.673123 24.691277,1.295766c19.906174,2.901779 24.879234,2.895598 27.160408,3.887329c1.613037,0.701278 2.473335,1.188879 3.70369,1.295766c7.483971,0.650093 13.626457,0.504129 19.753029,1.295766c5.052094,0.652783 8.641953,1.295798 11.111069,1.295798c1.234573,0 2.469131,0 2.469131,0c2.469131,0 4.938263,1.295766 13.5802,1.295766c6.172821,0 11.111084,0 16.049332,0c0,0 1.234573,0 2.469131,0c2.469131,0 7.471161,0.830233 12.345642,0c3.853622,-0.656371 4.938263,-1.295766 6.172821,-1.295766c1.234558,0 2.469116,0 3.70369,-1.295798c1.234558,-1.295766 3.325226,-1.890253 4.938263,-2.591531c1.140579,-0.495866 2.563095,0.495866 3.70369,0c1.613022,-0.701278 1.234558,-1.295766 2.469131,-1.295766c2.469116,0 3.70369,0 9.876511,0c3.70369,0 8.641937,0 8.641937,0c1.234573,0 2.481155,-0.255348 4.938263,0c6.264435,0.651054 9.876511,1.295766 18.518448,1.295766c1.234589,0 2.469147,0 3.703705,0c1.234558,0 2.469116,0 7.407379,0c3.703705,0 8.673828,0.415116 11.111084,0c3.853607,-0.656371 3.731415,-0.820816 7.407379,-1.295766c5.052094,-0.652783 16.144989,-1.346214 23.456726,-2.591563c7.707245,-1.31271 12.345642,-2.591531 12.345642,-2.591531c1.234558,0 2.469116,0 3.703674,0c1.234558,0 2.469147,0 7.407379,0c3.703705,0 3.703705,-1.295766 4.938263,-1.295766c1.234558,0 2.469147,0 3.703705,0c2.469116,0 6.172821,0 12.345642,0c3.703674,0 7.407379,0 8.641937,0c2.469116,0 3.703705,0 4.938263,0c2.469116,0 3.553741,0.639395 7.407379,1.295766c2.437225,0.415116 6.172821,0 7.407379,0c2.469116,0 3.703705,0 3.703705,0c1.234558,1.295766 2.469116,2.591531 4.938232,2.591531c3.703705,0 6.172821,1.295798 9.876526,1.295798c1.234558,0 2.469116,0 4.938263,0c1.234558,0 3.486084,0.630074 6.172821,1.295766c6.00769,1.488526 8.641937,0 13.5802,0c1.234558,0 3.703674,0 3.703674,0c1.234589,0 4.824432,0.642982 9.876526,1.295766c6.126587,0.791604 9.57666,1.278821 17.283905,2.591531c3.655853,0.622675 4.938232,0 6.172821,0c2.469116,0 2.469116,0 3.703674,0c2.469147,0 6.271912,-0.893141 9.876526,0c2.686707,0.665724 3.703674,1.295798 3.703674,1.295798c1.234589,0 2.469147,0 4.938263,0c4.938263,0 8.424347,1.925839 11.111084,2.591531c2.403076,0.595417 6.172821,0 7.40741,0c1.234558,0 2.751038,-1.487597 6.172791,0c1.613037,0.701278 7.455261,0.673091 11.111084,1.295766c3.853577,0.656371 4.938232,1.295766 7.407349,1.295766c1.234619,0 1.234619,0 2.469177,0c2.469116,0 3.703674,0 4.938232,0c1.234558,0 3.035522,-0.898522 3.703674,-2.591531c0.472473,-1.197143 0.856079,-1.890285 2.469177,-2.591531c1.140564,-0.495866 2.469116,0 2.469116,0c1.234558,-1.295798 2.090637,-1.890285 3.703674,-2.591563c1.140564,-0.495866 0.856079,-0.594488 2.469116,-1.295766c1.140564,-0.495866 2.469116,0 3.703674,0c0,0 1.234619,0 1.234619,-1.295766c0,0 -2.698792,-0.897401 -4.938293,-2.591563c-1.416382,-1.071487 -3.486084,-1.925839 -6.172791,-2.591531c-2.403076,-0.595417 -3.703735,0 -4.938293,0c-1.234558,0 -2.657043,-0.991731 -4.938232,0c-1.613037,0.701278 -3.703674,1.295766 -4.938232,1.295766c0,0 -0.361633,0.37953 -1.234619,1.295766c-0.872986,0.916235 -2.469116,1.295798 -3.703674,1.295798c0,0 -1.234558,1.295766 -2.469116,1.295766c-1.234558,0 -2.469116,0 -2.469116,0c-1.234558,0 -2.469116,0 -3.703735,0c-1.234558,0 -1.234558,0 -2.469116,0c-2.469116,0 -3.703674,1.295766 -3.703674,1.295766c-1.234558,0 -3.703674,0 -4.938232,0c0,0 -2.469147,0 -3.703705,0c-1.234589,0 -1.234589,0 -2.469147,0c-1.234558,0 -2.469116,0 -3.703674,0c-1.234589,0 -6.172821,0 -9.876526,0c-3.703674,0 -6.172821,0 -7.407379,0c-2.469116,0 -8.641937,0 -13.5802,0c-6.172821,0 -8.641937,1.295766 -9.876526,1.295766c-1.234558,0 -3.703674,0 -8.641937,0c-3.703705,0 -4.938263,0 -7.407379,0c-2.469147,0 -2.657104,-0.304034 -4.938263,-1.295766c-1.613037,-0.701278 -3.703705,-1.295766 -7.407379,-1.295766c-2.469147,0 -3.703705,-1.295766 -6.172821,-1.295766c-2.469116,0 -4.938263,0 -6.172821,0c-2.469116,0 -2.469116,0 -3.703705,0c-2.469116,0 -3.553741,0.639395 -7.407379,1.295766c-3.655853,0.622675 -6.172821,0 -6.172821,0c-2.469116,0 -3.703674,0 -4.938263,0c0,0 -6.172821,0 -9.876495,0c-2.469116,0 -4.065308,0.916235 -4.938263,0c-0.872955,-0.916235 -1.234558,-1.295766 -2.469116,-1.295766c-1.234558,0 -2.469147,0 -7.407379,0c-1.234589,0 -3.703705,0 -4.938263,0c0,0 -1.234558,0 -3.703705,0c-1.234558,0 -2.469116,0 -4.938263,0c-1.234558,0 -3.703674,0 -4.938232,0c-1.234558,0 -1.234558,1.295766 -2.469147,1.295766c-1.234558,0 -3.703674,0 -3.703674,0c-3.703705,0 -4.938263,0 -6.172821,0c-2.469147,0 -3.703705,0 -4.938263,0c-1.234558,0 -2.469116,0 -3.703705,0c-2.469116,0 -4.938232,0 -9.876495,0c-2.469147,0 -4.559784,1.890253 -6.172821,2.591531c-2.281158,0.991731 -3.722198,0.979111 -6.172821,1.295766c-5.052124,0.652783 -8.641937,1.295798 -14.814758,1.295798c-2.469147,0 -7.40741,1.295766 -8.641968,1.295766c-3.703674,0 -6.172821,0 -8.641937,0c-1.234558,0 -2.469116,0 -4.938263,0c0,0 -0.856079,-0.594488 -2.469116,-1.295766c-2.281189,-0.991763 -7.4552,-0.673123 -11.111084,-1.295798c-3.853638,-0.656371 -4.653503,-1.688653 -6.172821,-2.591531c-4.42952,-2.632274 -8.560654,-4.074291 -11.111069,-5.183094c-3.606873,-1.56809 -4.559799,-1.890253 -6.172821,-2.591531c-2.281174,-0.991731 -2.469131,-1.295766 -2.469131,-1.295766c-4.938263,-2.591563 -11.162094,-3.68938 -16.049332,-5.183094c-3.748337,-1.145638 -4.938263,-1.295766 -6.172821,-1.295766c-1.234558,0 -2.469131,0 -3.70369,0c-3.70369,0 -12.425354,1.037823 -18.518463,0c-3.853622,-0.656371 -4.938263,-1.295798 -4.938263,-1.295798c-1.234558,0 -2.563095,-0.495866 -3.70369,0c-1.613037,0.701278 -2.319199,3.230958 -6.172821,3.887329c-4.874481,0.830233 -12.345642,0 -16.049332,0c-1.234558,0 -2.469116,0 -3.70369,0c-1.234558,0 -4.938248,0 -9.876511,0c-2.469131,0 -3.70369,0 -4.938248,0c-1.234573,0 -2.469131,0 -3.703705,0c-1.234558,0 -1.271561,0.633277 -6.172821,0c-5.052094,-0.652783 -9.876503,-1.295766 -14.814758,-2.591531c0,0 -1.234566,0 -2.469131,0c-2.469131,0 -2.469131,0 -3.70369,0c-3.703697,0 -8.671997,-0.638402 -14.814774,0c-6.26442,0.651054 -9.876511,1.295766 -11.111076,1.295766c-1.234558,0 -2.469124,1.295766 -2.469124,1.295766c-2.469131,0 -7.407387,1.295766 -14.814766,1.295766c-1.234566,0 -4.938255,0 -6.172821,0c-1.234566,0 -2.469131,0 -3.703693,0c0,0 -4.938255,0 -9.876511,0c-7.407387,0 -12.345642,0 -13.580204,0c-1.234566,0 -1.328541,-0.495866 -2.469131,0c-1.613031,0.701278 -2.830721,0.37953 -3.70369,1.295766c-0.872986,0.916267 0,2.591563 0,3.887329c0,0 0,1.295766 0,2.591531c0,1.295798 0,2.591563 0,2.591563c-1.234564,0 -1.234564,1.295766 1.234564,1.295766c1.234564,0 3.703691,0 3.703691,0c2.469128,-1.295766 4.289192,-2.78506 4.938255,-3.887329c1.451317,-2.46469 8.641949,-2.591531 13.580204,-2.591531c6.172821,0 11.11108,0 13.580204,0c2.469131,0 2.563103,-0.495866 3.70369,0c1.613037,0.701278 3.703697,1.295766 3.703697,1.295766c1.234566,1.295766 3.70369,1.295766 4.938255,1.295766c1.234566,0 3.70369,0 4.938255,0c2.469124,0 8.550339,1.940509 14.814766,2.591563c4.914223,0.510728 9.876511,0 9.876511,0c1.234566,0 4.938255,0 11.111076,0c11.111084,0 23.456726,0 32.098663,0c1.234573,0 1.234573,0 2.469131,0c1.234558,0 2.469131,0 6.172821,0c4.938248,0 11.111069,0 13.5802,0c1.234573,0 3.70369,-1.295766 4.938263,-1.295766c1.234558,0 3.70369,0 3.70369,0c2.469131,0 8.641953,0 25.925842,0c7.407379,0 8.641953,0 8.641953,0c0,-1.295798 1.234558,-1.295798 1.234558,-2.591563c0,-1.295766 -1.234558,-1.295766 -1.234558,-1.295766c-1.234573,-1.295766 -7.407394,-2.591531 -12.345642,-2.591531c-7.407379,0 -14.814774,-1.295798 -20.987595,-1.295798c-2.469131,0 -3.70369,0 -6.172821,0c0,0 -0.856079,0.59452 -2.469116,1.295798c-1.140594,0.495866 -2.469131,0 -2.469131,0c-1.234573,1.295766 -2.469131,1.295766 -3.70369,1.295766c-1.234573,0 -2.469131,0 -3.703705,0c-2.469116,0 -4.938248,0 -7.407379,0c-3.70369,0 -7.407379,0 -11.111069,0c-1.234573,0 -2.469131,-1.295766 -3.70369,-1.295766c-1.234573,0 -2.478378,-1.13747 -3.703705,-1.295798c-5.052094,-0.652783 -13.503616,-1.941438 -20.987579,-2.591531c-4.92144,-0.427512 -4.938263,0 -6.172821,0c-1.234566,0 -3.703697,0 -3.703697,0c-1.234558,0 -2.469124,0 -4.938255,0c-1.234558,0 -8.424355,1.925839 -11.111076,2.591531c-2.403076,0.595417 -3.70369,0 -3.70369,0c-2.469131,0 -7.407387,0 -17.283897,0c-3.70369,0 -6.266792,0.799932 -7.407379,1.295798c-1.613033,0.701278 -2.535183,1.996114 -4.938259,2.591531c-5.373436,1.331384 -9.02467,3.028877 -12.345642,5.183094c-2.970364,1.9268 -4.270111,2.194288 -4.938255,3.887297c-0.472458,1.197175 -1.234562,1.295798 -1.234562,1.295798c2.469128,0 3.70369,0 6.172817,0c2.469131,0 3.703693,-1.295798 4.938259,-1.295798c2.469128,0 5.004307,0.595417 7.407383,0c2.686718,-0.665692 4.720669,-3.221605 7.407383,-3.887297c1.201538,-0.297692 1.234566,0 2.469131,0c0,0 1.234558,0 2.469124,0c1.234566,0 3.703697,0 6.172821,0c2.469131,0 6.172821,0 7.407387,0c2.469124,0 3.70369,0 3.70369,0c1.234566,0 2.469131,0 3.70369,0c1.234566,0 2.469131,0 6.172821,0c0,0 1.234566,0 3.703697,0c1.234558,0 3.70369,0 6.172813,0c4.938255,0 9.762672,1.938748 14.814774,2.591531c1.225311,0.158327 2.469124,0 4.938255,1.295766l13.5802,1.295798l7.407379,0l3.703705,0" id="svg_72" stroke-width="18" fill="none"/>
  <path d="m233.580429,149.429169c0,0 2.469131,0 3.70369,0c0,0 2.56311,0.472443 3.70369,0c1.613022,-0.668137 0.361588,-1.596161 1.234558,-2.469131c0.872971,-0.872971 1.596161,-0.361588 2.469131,-1.234558c0.872971,-0.872971 1.234573,-1.234558 2.469131,-1.234558c0,0 0,0 1.234558,0c1.234573,0 2.469131,0 3.703705,-1.234573c0,0 0,-1.234558 1.234558,-1.234558c2.469131,0 2.830734,-0.361588 3.70369,-1.234558c1.745941,-1.745926 3.703705,0 4.938263,0c0,0 1.234558,0 2.469116,0c1.234558,0 2.469147,0 2.469147,0c2.469116,1.234558 3.736694,0.950912 4.938232,1.234558c2.686737,0.634247 3.703705,1.234558 4.938263,1.234558c1.234558,0 2.469147,0 4.938263,0c0,0 0,1.234573 1.234558,1.234573c1.234558,0 1.234558,0 2.469116,0c1.234589,0 1.234589,0 2.469147,0c1.234558,0 2.469116,0 3.703674,0c1.234589,0 2.469147,0 4.938263,0c0,0 1.234558,0 2.469147,0c1.234558,0 2.469116,0 2.469116,0c1.234558,0 2.469116,0 3.703705,0c1.234558,0 1.234558,0 2.469116,0c1.234558,0 3.703705,0 4.938263,0c1.234558,0 3.703674,0 4.938263,0c1.234558,0 2.830719,0.361588 3.703674,1.234558c0.872955,0.872971 -0.649048,1.418945 0,2.469131c1.451324,2.348267 4.065308,0.361588 4.938263,1.234558c0.872986,0.872971 1.996674,1.328552 2.469116,2.469131c0.668152,1.613022 2.469147,1.234558 2.469147,1.234558c0,1.234573 2.469116,1.234573 4.938232,1.234573c0,0 2.56311,-0.472443 3.703705,0c1.613037,0.668137 1.234558,2.469131 2.469116,2.469131l1.234589,0l0,1.234558" id="svg_75" fill-opacity="null" stroke-width="8" stroke="#ff0000" fill="none"/>
  <path stroke="url(#svg_76)" d="m263.08899,140.98385c0,0 2.570351,0 3.855526,0c5.140734,0 9.911329,-6.005508 16.707376,-8.056685c2.523968,-0.761795 5.140734,-2.014159 5.140734,-2.014159c1.285175,0 1.782357,-3.862384 5.140702,-6.042514c1.187391,-0.770806 2.570383,0 3.855558,0c1.285175,0 1.285175,0 3.855558,0c2.570351,0 3.855526,0 5.140702,0c1.285207,0 2.570383,0 2.570383,0c1.285175,2.014171 3.66628,2.362805 5.140734,4.028342c4.662613,5.266803 7.808901,5.271707 8.99626,6.042489c1.679172,1.090077 1.285175,2.014184 1.285175,4.028342c0,2.014184 0.793362,2.167508 1.285175,4.028342c0.695546,2.631615 0.793362,4.181667 1.285175,6.042501c0.695546,2.631665 1.285207,6.042501 1.285207,8.056685c0,0 0.491813,2.167484 0,4.028317c-0.695546,2.631665 -2.570383,2.014184 -3.855558,2.014184c0,0 -1.285175,0 -3.855526,0c-1.285207,0 -1.285207,-2.014184 -2.570383,-2.014184c-1.285175,0 -1.661604,-2.604082 -2.570351,-4.028317c-0.908747,-1.424235 -2.570383,-2.014184 -3.855558,-4.028342c-1.285175,-2.014159 -2.570351,-4.028342 -2.570351,-4.028342c-1.285175,0 -2.946811,-0.589923 -3.855558,-2.014159c-0.908779,-1.424235 -0.376429,-4.618266 -1.285175,-6.042501c-0.908747,-1.424235 -2.570351,0 -3.855558,0c-1.285175,0 -1.285175,0 -2.570351,0c-1.285175,0 -2.570351,0 -3.855558,0c0,0 -1.285175,0 -2.570351,0c-1.285175,0 -2.570351,0 -3.855558,0c-1.285175,0 -3.855526,0 -3.855526,0c-2.570351,0 -5.140734,0 -5.140734,0c-1.285175,0 -2.570351,0 -3.855526,0c-1.285207,0 -2.570383,2.014159 -3.855558,2.014159c-2.570351,0 -2.570351,0 -5.140734,0c-1.285175,0 -2.668167,-0.770781 -3.855526,0c-1.679172,1.090053 -3.855558,2.014159 -3.855558,2.014159c-1.285175,0 -2.570367,0 -3.855542,0c-1.285175,0 -1.285175,2.014184 -1.285175,2.014184c-1.285191,0 -2.078538,2.167484 -2.570367,4.028342c-0.695546,2.63164 -0.376429,4.618266 -1.285191,6.042501c-0.908763,1.424235 -1.383007,1.243377 -2.570351,2.014159c-1.679172,1.090053 -0.89121,4.952449 -2.570367,6.042501c-1.187359,0.770806 -1.285191,0 -1.285191,0c0,2.014184 -1.383007,1.243402 -2.570351,2.014184c-1.679172,1.090053 -2.570367,2.014159 -2.570367,2.014159c-1.285175,0 -2.570367,0 -2.570367,-2.014159c0,-2.014184 0.793378,-2.167508 1.285191,-4.028342c0.69553,-2.63164 1.285175,-4.028342 1.285175,-6.042501c0,0 -0.908763,-2.604107 0,-4.028342c0.908763,-1.424235 0.376413,-2.604107 1.285175,-4.028342c0.908763,-1.424235 2.176386,-0.924106 3.855542,-2.014159c1.187359,-0.770806 3.855558,-2.014184 5.140734,-2.014184c1.285175,0 2.570367,0 3.855542,0c1.285191,0 2.570367,0 5.140734,0c1.285175,0 2.570351,0 3.855526,0c1.285207,0 2.570383,0 3.855558,0c1.285175,0 2.176386,-0.924106 3.855558,-2.014159c1.187359,-0.770781 2.570351,-2.014159 5.140702,-2.014159c1.285207,0 2.570383,0 3.855558,-2.014184c1.285175,-2.014159 2.570351,-2.014159 5.140734,-2.014159c1.285175,0 1.285175,0 3.855526,0c1.285175,0 2.570383,-2.014184 2.570383,-2.014184c1.285175,0 2.570351,0 3.855526,0c1.285175,0 1.285175,0 2.570383,0c2.570351,0 3.855526,0 3.855526,0c2.570383,0 3.855558,0 5.140734,0c0,0 2.94678,-1.42426 3.855558,0c0.908779,1.424235 0.891179,4.952449 2.570351,6.042526c1.187359,0.770781 3.855558,0 3.855558,0c1.285175,2.014159 2.668167,1.243377 3.855526,2.014159c1.679172,1.090053 1.285175,4.028342 1.285175,6.042501c0,0 -2.570351,0 -3.855526,0c-2.570383,0 -5.140734,-2.014159 -6.425909,-2.014159c-2.570383,0 -5.140734,0 -7.711084,0c-2.570383,0 -2.570383,0 -5.140734,0c-1.285175,0 -2.668199,-0.770781 -3.855558,0c-1.679172,1.090053 -2.570351,2.014159 -3.855526,2.014159c0,0 -1.383023,-0.770781 -2.570383,0c-1.679172,1.090077 -2.570351,2.014184 -2.570351,2.014184c-1.285175,0 -2.570351,0 -3.855558,0l-1.285175,0l0,0" id="svg_77" fill-opacity="null" stroke-width="15" fill="none"/>
 </g>
</svg>